<svg viewBox="200 580 380 340" xmlns="http://www.w3.org/2000/svg" role="img" aria-label="Ardeno Studio">
  <path fill="#ff3301" d="M 514.300781 878.699219 L 434.792969 718.777344 C 411.382812 739.714844 390.78125 776.453125 391.929688 806.554688 L 415.984375 853.996094 C 416.851562 855.699219 418.324219 857.015625 420.113281 857.679688 L 504.851562 889.203125 C 511.304688 891.605469 517.367188 884.867188 514.300781 878.699219 Z M 371.617188 791.304688 C 371.410156 791.605469 371.222656 791.925781 371.054688 792.265625 L 340.871094 853.445312 C 340.011719 855.183594 338.523438 856.527344 336.707031 857.207031 L 250.40625 889.308594 C 243.988281 891.699219 237.9375 885.042969 240.917969 878.878906 L 369.019531 614.007812 C 371.769531 608.324219 379.851562 608.277344 382.664062 613.929688 L 432.074219 713.316406 C 404.980469 732.679688 383.765625 759.746094 371.617188 791.304688"/>
</svg>
